PathFileType	4	(x/y/z)	S08_PSF_T13
DataRate	CameraRate	NumFrames	NumMarkers	Units	OrigDataRate	OrigDataStartFrame	OrigNumFrames
240	240	4	51	mm	240	1	422
Frame#	Time	Sternum			R.Acromium			L.Acromium			Top.Head			R.ASIS			L.ASIS			R.PSIS			L.PSIS			R.Great.Tro			L.Great.Tro			R.Iliac.Crest			L.Iliac.Crest			V.Sacral			R.Thigh.Upper.Post			R.Thigh.Lower.Ant			R.Thigh.Lower.Post			R.Thigh.Upper.Ant			R.Knee.Lat			R.Knee.Med			R.Shank.Upper.Post			R.Shank.Lower.Ant			R.Shank.Lower.Post			R.Shank.Upper.Ant			R.Ankle.Lat			R.Ankle.Med			R.Heel.Upper			R.Heel.Med			R.Heel.Lat			R.Toe.Lat			R.Toe.Med			R.Toe.Tip			L.Thigh.Upper.Post			L.Thigh.Lower.Ant			L.Thigh.Lower.Post			L.Thigh.Upper.Ant			L.Knee.Lat			L.Knee.Med			L.Shank.Upper.Post			L.Shank.Lower.Ant			L.Shank.Lower.Post			L.Shank.Upper.Ant			L.Ankle.Lat			L.Ankle.Med			L.Heel.Upper			L.Heel.Med			L.Heel.Lat			L.Toe.Lat			L.Toe.Med			L.Toe.Tip			Cervical.Spine			Back			
		X1	Y1	Z1	X2	Y2	Z2	X3	Y3	Z3	X4	Y4	Z4	X5	Y5	Z5	X6	Y6	Z6	X7	Y7	Z7	X8	Y8	Z8	X9	Y9	Z9	X10	Y10	Z10	X11	Y11	Z11	X12	Y12	Z12	X13	Y13	Z13	X14	Y14	Z14	X15	Y15	Z15	X16	Y16	Z16	X17	Y17	Z17	X18	Y18	Z18	X19	Y19	Z19	X20	Y20	Z20	X21	Y21	Z21	X22	Y22	Z22	X23	Y23	Z23	X24	Y24	Z24	X25	Y25	Z25	X26	Y26	Z26	X27	Y27	Z27	X28	Y28	Z28	X29	Y29	Z29	X30	Y30	Z30	X31	Y31	Z31	X32	Y32	Z32	X33	Y33	Z33	X34	Y34	Z34	X35	Y35	Z35	X36	Y36	Z36	X37	Y37	Z37	X38	Y38	Z38	X39	Y39	Z39	X40	Y40	Z40	X41	Y41	Z41	X42	Y42	Z42	X43	Y43	Z43	X44	Y44	Z44	X45	Y45	Z45	X46	Y46	Z46	X47	Y47	Z47	X48	Y48	Z48	X49	Y49	Z49	X50	Y50	Z50	X51	Y51	Z51	

1	0	NaN	NaN	NaN	-1606.2	1456.6	526.22	-1628.2	1482.7	192.03	-1596.7	1773.1	371.04	NaN	NaN	NaN	NaN	NaN	NaN	NaN	NaN	NaN	NaN	NaN	NaN	-1628.9	900.43	525.53	-1612.6	899.1	155.77	-1641.3	1075.3	501.22	-1617.8	1086.6	191.87	-1750.9	990.76	325.02	-1692.9	713.66	508.58	-1633.3	605.62	468.87	-1713	627.38	486.58	NaN	NaN	NaN	-1709.1	513.47	460.67	-1727.6	525.83	332.62	-1830.7	356.97	458.15	NaN	NaN	NaN	-1852.7	283.49	444.97	-1762.6	353.17	449.8	-1897.2	122.47	401.45	-1860.7	131.75	325.82	-1949.6	87.728	352.51	-1936.8	57.767	328	-1948.8	65.35	387.98	-1779.4	39.692	447.79	-1750.5	47.863	331.64	-1688.6	57.179	382.87	-1547.9	693.03	166.7	-1432	640.64	189.86	-1502.9	615.79	182.11	-1477.8	716.04	169	-1447.8	530.86	201.94	NaN	NaN	NaN	-1432	342.95	199.63	-1334	289.33	218.61	-1407.5	274.13	214.04	-1366.6	356.78	204.65	-1316.2	119.74	226.54	-1296.1	135.68	311.85	NaN	NaN	NaN	NaN	NaN	NaN	-1333.9	49.492	244.65	-1168.5	108.53	212.94	-1154.8	123.49	324.51	-1104	164.8	277.05	-1683.8	1516.6	356.54	-1739.5	1235.5	363.01
2	0.0041667	NaN	NaN	NaN	-1601.2	1455.8	525.78	-1623.3	1481.9	191.55	-1591.9	1772.5	370.52	NaN	NaN	NaN	NaN	NaN	NaN	NaN	NaN	NaN	NaN	NaN	NaN	-1624.1	899.78	525.26	-1607.5	898.34	155.61	-1636.4	1074.6	500.98	-1612.9	1085.9	191.64	-1745.8	990.03	324.72	-1688.2	713.04	508.22	-1628.9	604.95	468.82	-1708.4	626.75	486.26	NaN	NaN	NaN	-1705	513	460.55	-1723.1	525.28	332.44	-1827.6	357.43	458.16	-1780.8	280.5	433.34	-1848.6	282.9	444.99	-1759.9	352.98	449.69	-1896.3	123.58	401.57	-1860	132.5	325.98	-1949.1	89.215	352.65	-1936.5	59.209	328.07	-1948.4	66.742	388.05	-1779.2	39.727	447.79	-1750.3	47.869	331.67	-1688.4	56.843	382.88	-1543.3	692.26	166.65	-1427.2	639.88	189.52	-1498.4	615.01	182.16	-1473	715.2	168.55	-1443.3	529.97	201.99	NaN	NaN	NaN	-1427.6	342.01	199.73	-1329.8	288.28	218.88	-1403.2	273.17	214.2	-1362.2	355.76	204.84	-1312	118.71	226.86	-1292.1	134.62	312.22	NaN	NaN	NaN	NaN	NaN	NaN	-1329.7	48.57	244.95	-1164.2	107.7	213.53	-1150.8	122.67	325.07	-1099.9	164.07	277.66	-1678.8	1515.9	356.1	-1734.6	1234.7	362.73
3	0.0083333	NaN	NaN	NaN	-1596	1455.1	525.33	-1618.3	1481.1	191.05	-1587	1771.8	369.97	NaN	NaN	NaN	NaN	NaN	NaN	NaN	NaN	NaN	NaN	NaN	NaN	-1619.2	899.11	524.97	-1602	897.57	155.44	-1631.2	1073.8	500.74	-1607.7	1085.1	191.39	-1740.5	989.29	324.42	-1683.3	712.4	507.84	-1624.2	604.25	468.76	-1703.5	626.1	485.93	NaN	NaN	NaN	-1700.6	512.51	460.43	-1718.3	524.7	332.26	-1824.3	357.94	458.18	-1778.1	280.76	433.34	-1844.4	282.36	445.01	-1757.3	352.79	449.58	-1895.4	124.77	401.7	-1859.2	133.31	326.15	-1948.6	90.818	352.79	-1936.2	60.766	328.15	-1948	68.241	388.13	-1779	39.76	447.79	-1750.1	47.879	331.71	-1688.1	56.502	382.89	-1538.6	691.48	166.61	-1422.2	639.12	189.17	-1493.8	614.23	182.23	-1467.9	714.37	168.06	-1438.5	529.06	202.05	NaN	NaN	NaN	-1423.1	341.04	199.83	-1325.4	287.17	219.16	-1398.8	272.19	214.36	-1357.7	354.69	205.05	-1307.8	117.64	227.17	-1288.1	133.48	312.61	NaN	NaN	NaN	NaN	NaN	NaN	-1325.5	47.651	245.25	-1159.9	106.72	214.11	-1146.7	121.69	325.63	-1095.8	163.15	278.27	-1673.6	1515.2	355.64	-1729.4	1233.9	362.42
4	0.0125	NaN	NaN	NaN	-1590.6	1454.3	524.85	-1613.1	1480.2	190.52	-1581.9	1771.1	369.41	NaN	NaN	NaN	NaN	NaN	NaN	NaN	NaN	NaN	NaN	NaN	NaN	-1614	898.42	524.67	-1596.4	896.79	155.27	-1625.8	1073.1	500.48	-1602.4	1084.4	191.13	-1735	988.55	324.1	-1678.2	711.75	507.44	-1619.3	603.54	468.68	-1698.4	625.42	485.57	NaN	NaN	NaN	-1696.1	512	460.31	-1713.3	524.09	332.07	-1820.7	358.48	458.2	-1775.4	281.02	433.36	-1840	281.87	445.02	-1754.8	352.61	449.47	-1894.5	126.05	401.85	-1858.3	134.19	326.34	-1948	92.538	352.94	-1935.9	62.443	328.22	-1947.6	69.85	388.21	-1778.9	39.789	447.79	-1749.9	47.892	331.75	-1687.9	56.158	382.9	-1533.7	690.69	166.6	-1417	638.36	188.82	-1488.9	613.44	182.31	-1462.6	713.54	167.55	-1433.5	528.14	202.13	NaN	NaN	NaN	-1418.5	340.07	199.94	-1321	286.01	219.47	-1394.4	271.18	214.54	-1353.1	353.58	205.27	-1303.6	116.51	227.48	-1284.1	132.29	313	NaN	NaN	NaN	NaN	NaN	NaN	-1321.3	46.75	245.54	-1155.7	105.58	214.68	-1142.7	120.51	326.17	-1091.6	162	278.87	-1668.2	1514.5	355.16	-1724	1233.2	362.11
